<svg width="214" height="60" viewBox="0 0 214 60" fill="none" xmlns="http://www.w3.org/2000/svg">
<path d="M72.7116 40.292C76.3236 40.292 79.2356 38.976 81.1396 36.596L77.6116 33.404C76.3796 34.888 74.8676 35.7 72.9916 35.7C69.7716 35.7 67.5316 33.46 67.5316 30.1C67.5316 26.74 69.7716 24.5 72.9916 24.5C74.8676 24.5 76.3796 25.312 77.6116 26.796L81.1396 23.604C79.2356 21.224 76.3236 19.908 72.7116 19.908C66.4956 19.908 61.9316 24.136 61.9316 30.1C61.9316 36.064 66.4956 40.292 72.7116 40.292Z" fill="white"/>
<path d="M89.7728 24.4719C87.3928 24.4719 84.8168 25.0879 83.0808 26.2359L84.8728 29.8479C85.9088 29.0359 87.5328 28.5319 88.9888 28.5319C91.0888 28.5319 92.1248 29.3999 92.2088 30.9399H89.1848C84.4808 30.9399 82.4368 32.6759 82.4368 35.4759C82.4368 38.1079 84.4528 40.1519 88.0928 40.1519C90.3048 40.1519 91.8168 39.3959 92.5728 37.9399V39.8999H97.5288V31.4719C97.5288 26.6559 94.7008 24.4719 89.7728 24.4719ZM89.5768 36.7919C88.3168 36.7919 87.5888 36.1479 87.5888 35.2519C87.5888 34.3279 88.2048 33.7119 89.9128 33.7119H92.2088V35.0279C91.7888 36.2319 90.7528 36.7919 89.5768 36.7919Z" fill="white"/>
<path d="M105.955 26.5439V24.7239H100.887V39.8999H106.207V32.9279C106.207 30.2679 107.691 29.1759 109.847 29.1759C110.239 29.1759 110.575 29.2039 111.051 29.2599V24.4719C108.811 24.4719 107.047 25.1719 105.955 26.5439Z" fill="white"/>
<path d="M123.918 19.124V26.04C122.91 24.976 121.482 24.472 119.718 24.472C115.574 24.472 112.242 27.468 112.242 32.284C112.242 37.128 115.574 40.152 119.718 40.152C121.678 40.152 123.162 39.592 124.17 38.388V39.9H129.238V19.124H123.918ZM120.838 35.924C119.018 35.924 117.646 34.608 117.646 32.284C117.646 29.988 119.018 28.7 120.838 28.7C122.63 28.7 124.002 29.988 124.002 32.284C124.002 34.608 122.63 35.924 120.838 35.924Z" fill="white"/>
<path d="M148.172 32.3399C148.172 27.3279 144.532 24.4719 140.052 24.4719C135.264 24.4719 131.708 27.7199 131.708 32.2839C131.708 36.8199 135.208 40.1519 140.612 40.1519C143.496 40.1519 145.624 39.3119 147.08 37.6879L144.28 34.7759C143.244 35.6719 142.264 36.0919 140.78 36.0919C138.82 36.0919 137.504 35.1959 137.056 33.6559H148.088C148.116 33.2359 148.172 32.7319 148.172 32.3399ZM140.08 28.2519C141.732 28.2519 142.908 29.2599 143.188 30.8559H136.972C137.28 29.2599 138.428 28.2519 140.08 28.2519Z" fill="white"/>
<path d="M160.509 24.4719C158.605 24.4719 156.897 25.1159 155.693 26.3759V24.7239H150.625V39.8999H155.945V32.5639C155.945 30.0439 157.261 28.9799 158.969 28.9799C160.509 28.9799 161.461 29.9039 161.461 32.0879V39.8999H166.781V31.2199C166.781 26.5159 164.065 24.4719 160.509 24.4719Z" fill="white"/>
<path d="M178.096 40.1519C181.54 40.1519 184.172 38.6119 185.208 35.9799L181.092 33.8799C180.364 35.3079 179.3 35.9239 178.068 35.9239C176.22 35.9239 174.764 34.6359 174.764 32.2839C174.764 29.9879 176.22 28.6999 178.068 28.6999C179.3 28.6999 180.364 29.3159 181.092 30.7439L185.208 28.6439C184.172 26.0119 181.54 24.4719 178.096 24.4719C173 24.4719 169.388 27.7199 169.388 32.2839C169.388 36.9039 173 40.1519 178.096 40.1519Z" fill="white"/>
<path d="M202.559 32.3399C202.559 27.3279 198.919 24.4719 194.439 24.4719C189.651 24.4719 186.095 27.7199 186.095 32.2839C186.095 36.8199 189.595 40.1519 194.999 40.1519C197.883 40.1519 200.011 39.3119 201.467 37.6879L198.667 34.7759C197.631 35.6719 196.651 36.0919 195.167 36.0919C193.207 36.0919 191.891 35.1959 191.443 33.6559H202.475C202.503 33.2359 202.559 32.7319 202.559 32.3399ZM194.467 28.2519C196.119 28.2519 197.295 29.2599 197.575 30.8559H191.359C191.667 29.2599 192.815 28.2519 194.467 28.2519Z" fill="white"/>
<path fill-rule="evenodd" clip-rule="evenodd" d="M40.5409 10.8C40.5409 11.8 39.7409 12.6 38.7409 12.6C37.7409 12.6 36.9409 11.8 36.9409 10.8C36.9409 9.8 37.7409 9 38.7409 9C39.7409 9 40.5409 9.8 40.5409 10.8ZM38.5409 17.1C38.5409 18.7 39.8409 20 41.4409 20C43.0409 20 44.3409 18.7 44.3409 17.1C44.3409 15.5 43.0409 14.2 41.4409 14.2C39.8409 14.2 38.5409 15.5 38.5409 17.1ZM35.6408 20.3C35.6408 21.2 35.3408 22 34.8408 22.6C33.9408 22.3 32.9408 22.1 31.9408 22.1C30.9408 22.1 29.9408 22.3 29.0408 22.6C28.5408 21.9 28.2408 21.2 28.2408 20.3C28.2408 18.3 29.9408 16.6 31.9408 16.6C33.9408 16.6 35.6408 18.3 35.6408 20.3ZM28.2408 39.6C28.2408 38.9 28.4408 38.3 28.8408 37.7C29.7408 38.1 30.8408 38.3 31.9408 38.3C33.0408 38.3 34.0408 38.1 35.0408 37.7C35.4408 38.2 35.6408 38.9 35.6408 39.6C35.6408 41.6 33.9408 43.3 31.9408 43.3C29.9408 43.3 28.2408 41.6 28.2408 39.6ZM42.1409 28.3999C43.9409 27.3999 44.5409 25.0999 43.4409 23.3999C42.4409 21.5999 40.1409 20.9999 38.4409 22.0999C37.7409 22.4999 37.1409 23.1999 36.9409 23.8999C38.5409 25.0999 39.6409 26.8999 39.9409 28.9999L40.0323 28.987C40.7099 28.8907 41.4712 28.7826 42.1409 28.3999ZM21.8409 31.5999C22.4409 31.1999 23.2409 30.9999 23.9409 31.0999C24.1409 33.2999 25.2409 35.1999 26.9409 36.3999C26.6409 36.9999 26.1409 37.4999 25.5409 37.8999C23.8409 38.9999 21.5409 38.3999 20.5409 36.5999C19.4409 34.8999 20.0409 32.5999 21.8409 31.5999ZM37.0409 36.5C37.3409 37.1 37.8409 37.6 38.4409 38C40.2409 39 42.4409 38.4 43.4409 36.7C44.4409 34.9 43.8409 32.7 42.1409 31.7C41.4409 31.3 40.7409 31.2 40.0409 31.2C39.7409 33.3 38.6409 35.2 37.0409 36.5ZM25.4408 22C26.2408 22.4 26.7408 23.1 27.0408 23.8C25.4408 25 24.3408 26.8 23.9408 28.8C23.2408 28.8 22.4408 28.7 21.7408 28.3C20.0408 27.3 19.4408 25.1 20.4408 23.3C21.4408 21.6 23.6408 21 25.4408 22ZM54.0408 25.3C53.5408 24.4 52.4408 24.1 51.5408 24.6C50.6408 25.1 50.3408 26.2 50.8408 27.1C51.3408 28 52.4408 28.3 53.3408 27.8C54.2408 27.3 54.5408 26.2 54.0408 25.3ZM44.3408 44.9999C44.8408 44.0999 45.9408 43.7999 46.8408 44.2999C47.7408 44.7999 48.0408 45.8999 47.5408 46.7999C47.0408 47.7 45.9408 47.9999 45.0408 47.4999C44.1408 46.9999 43.8408 45.8999 44.3408 44.9999ZM25.6408 48.2C24.6408 48.2 23.8408 49 23.8408 50C23.8408 51 24.6408 51.8 25.6408 51.8C26.6408 51.8 27.4408 51 27.4408 50C27.4408 49 26.6408 48.2 25.6408 48.2ZM10.2409 35.5C9.74085 34.6 10.0409 33.5 10.9409 33C11.8409 32.4 12.9409 32.8 13.4409 33.7C13.9409 34.6 13.6409 35.7 12.7409 36.2C11.8409 36.7 10.7409 36.4 10.2409 35.5ZM18.9408 13.1C18.0408 12.6 16.9408 12.9 16.4408 13.8C15.9408 14.7 16.2408 15.8 17.1408 16.3C18.0408 16.8 19.1408 16.5 19.6408 15.6C20.1408 14.7 19.8408 13.6 18.9408 13.1ZM45.7409 33C44.9409 31.6 45.3409 29.9 46.7409 29.1C48.0409 28.3 49.8409 28.8 50.6409 30.1C51.4409 31.5 51.0409 33.2 49.6409 34C48.2409 34.8 46.5409 34.4 45.7409 33ZM40.3408 42.2C38.9408 41.4 37.2408 41.9 36.4408 43.2C35.6408 44.6 36.1408 46.3 37.4408 47.1C38.7408 47.9 40.5408 47.4 41.3408 46.1C42.2408 44.8 41.7408 43 40.3408 42.2ZM22.9409 40.4C24.5409 40.4 25.8409 41.7 25.8409 43.3C25.8409 44.9 24.5409 46.2 22.9409 46.2C21.3409 46.2 20.0409 44.9 20.0409 43.3C20.0409 41.7 21.3409 40.4 22.9409 40.4ZM14.8408 26.2999C13.4408 27.0999 13.0408 28.7999 13.8408 30.1999C14.6408 31.5999 16.3408 31.9999 17.7408 31.1999C19.1408 30.3999 19.5408 28.6999 18.7408 27.2999C17.9408 25.9999 16.1408 25.4999 14.8408 26.2999ZM27.9409 17.1C27.1409 18.4 25.4409 18.9 24.0409 18.1C22.6409 17.4 22.1409 15.6 23.0409 14.2C23.8409 12.9 25.5409 12.4 26.9409 13.2C28.2409 14 28.7409 15.7 27.9409 17.1Z" fill="url(#paint0_linear_1_58)"/>
<defs>
<linearGradient id="paint0_linear_1_58" x1="49" y1="16.5" x2="17.1602" y2="45.8806" gradientUnits="userSpaceOnUse">
<stop offset="0.202217" stop-color="#FFA461"/>
<stop offset="0.854167" stop-color="#1BA6D1"/>
</linearGradient>
</defs>
</svg>
