<svg width="40" height="40" viewBox="0 0 40 40" fill="none" xmlns="http://www.w3.org/2000/svg">
<g id="ethereum-2 1">
<g id="Group 94">
<path id="Vector" d="M19.7491 30.0256L8.59686 24.109L19.7399 38.7853L21.2755 36.7187V29.278L19.7491 30.0256Z" fill="white"/>
<path id="Vector_2" d="M19.7399 1L8 22.0652H31.48L19.7399 1Z" fill="white"/>
<path id="Vector_3" d="M31.48 22.0964L19.7399 1V22.0964H31.48Z" fill="#DEE0E3"/>
<path id="Vector_4" d="M19.7399 16.3444L19.6937 16.3225L8.00113 22.0825H8.01154L19.7041 27.8424L19.7503 27.8205L21.2755 27.0741V17.0965L19.7399 16.3444Z" fill="#A0A0A0"/>
<path id="Vector_5" d="M19.7491 30.0256L19.7399 38.7853L30.8902 24.0997L19.7491 30.0256Z" fill="#DEE0E3"/>
<path id="Vector_6" d="M31.4581 22.0825L19.7399 16.3444L19.6937 16.3225L19.7041 27.8424L19.7503 27.8205L31.4685 22.0825H31.4581Z" fill="#7D7D85"/>
</g>
</g>
</svg>
