<svg width="24" height="24" viewBox="0 0 24 24" fill="none" xmlns="http://www.w3.org/2000/svg">
<g id="free-icon-russia-197408 1" clip-path="url(#clip0_5_1329)">
<path id="Vector" d="M12 24.0005C18.6274 24.0005 24 18.6279 24 12.0005C24 5.37307 18.6274 0.000488281 12 0.000488281C5.37258 0.000488281 0 5.37307 0 12.0005C0 18.6279 5.37258 24.0005 12 24.0005Z" fill="#F0F0F0"/>
<path id="Vector_2" d="M23.2536 16.1743C23.736 14.8743 24 13.4683 24 12.0004C24 10.5326 23.736 9.12652 23.2536 7.82654H0.746391C0.264047 9.12652 0 10.5326 0 12.0004C0 13.4683 0.264047 14.8743 0.746391 16.1743L12 17.2178L23.2536 16.1743Z" fill="#0052B4"/>
<path id="Vector_3" d="M12.0002 24.0005C17.1598 24.0005 21.5583 20.744 23.2538 16.1744H0.746582C2.4421 20.744 6.84061 24.0005 12.0002 24.0005Z" fill="#D80027"/>
</g>
<defs>
<clipPath id="clip0_5_1329">
<rect width="24" height="24" fill="white" transform="translate(0 0.000488281)"/>
</clipPath>
</defs>
</svg>
