<svg width="24" height="24" viewBox="0 0 24 24" fill="none" xmlns="http://www.w3.org/2000/svg">
<g id="free-icon-thailand-197452 1" clip-path="url(#clip0_5_1335)">
<path id="Vector" d="M12 24.0005C18.6274 24.0005 24 18.6279 24 12.0005C24 5.37307 18.6274 0.000488281 12 0.000488281C5.37258 0.000488281 0 5.37307 0 12.0005C0 18.6279 5.37258 24.0005 12 24.0005Z" fill="#F0F0F0"/>
<path id="Vector_2" d="M23.2536 7.82654H0.746391C0.264 9.12652 0 10.5326 0 12.0004C0 13.4683 0.264 14.8743 0.746391 16.1743H23.2537C23.736 14.8743 24 13.4683 24 12.0004C24 10.5326 23.736 9.12652 23.2536 7.82654Z" fill="#0052B4"/>
<g id="Group">
<path id="Vector_3" d="M11.9994 0.000488281C8.36236 0.000488281 5.10347 1.6188 2.90283 4.17438H21.096C18.8954 1.6188 15.6365 0.000488281 11.9994 0.000488281Z" fill="#D80027"/>
<path id="Vector_4" d="M21.0961 19.8265H2.90283C5.10347 22.3821 8.36236 24.0005 11.9994 24.0005C15.6365 24.0005 18.8954 22.3821 21.0961 19.8265Z" fill="#D80027"/>
</g>
</g>
<defs>
<clipPath id="clip0_5_1335">
<rect width="24" height="24" fill="white" transform="translate(0 0.000488281)"/>
</clipPath>
</defs>
</svg>
