<svg width="24" height="24" viewBox="0 0 24 24" fill="none" xmlns="http://www.w3.org/2000/svg">
<g id="free-icon-china-197375 1" clip-path="url(#clip0_5_1343)">
<path id="Vector" d="M12 24.0005C18.6274 24.0005 24 18.6279 24 12.0005C24 5.37307 18.6274 0.000488281 12 0.000488281C5.37258 0.000488281 0 5.37307 0 12.0005C0 18.6279 5.37258 24.0005 12 24.0005Z" fill="#D80027"/>
<g id="Group">
<path id="Vector_2" d="M6.56719 7.30347L7.60312 10.491H10.9547L8.24531 12.4644L9.28125 15.6519L6.56719 13.6832L3.85313 15.6519L4.89375 12.4644L2.17969 10.491H5.53125L6.56719 7.30347Z" fill="#FFDA44"/>
<path id="Vector_3" d="M14.2265 18.5864L13.4343 17.6114L12.2624 18.066L12.9421 17.0114L12.1499 16.0317L13.364 16.3551L14.0483 15.3004L14.114 16.5567L15.3327 16.8801L14.1561 17.3301L14.2265 18.5864Z" fill="#FFDA44"/>
<path id="Vector_4" d="M15.8015 15.727L16.1765 14.527L15.1499 13.8004L16.4062 13.7817L16.7765 12.5817L17.1843 13.7723L18.4405 13.7582L17.4327 14.5082L17.8358 15.6989L16.8093 14.9723L15.8015 15.727Z" fill="#FFDA44"/>
<path id="Vector_5" d="M17.9251 8.8082L17.372 9.93789L18.272 10.8145L17.0298 10.6363L16.4767 11.7613L16.261 10.5238L15.0142 10.3457L16.1298 9.75977L15.9142 8.51758L16.8142 9.39414L17.9251 8.8082Z" fill="#FFDA44"/>
<path id="Vector_6" d="M14.2592 5.38635L14.1654 6.63792L15.3326 7.11135L14.1092 7.41135L14.0201 8.6676L13.3592 7.59885L12.1357 7.89885L12.9467 6.93792L12.2811 5.87385L13.4482 6.34729L14.2592 5.38635Z" fill="#FFDA44"/>
</g>
</g>
<defs>
<clipPath id="clip0_5_1343">
<rect width="24" height="24" fill="white" transform="translate(0 0.000488281)"/>
</clipPath>
</defs>
</svg>
